<svg width="315" height="772" viewBox="0 0 315 772" fill="none" xmlns="http://www.w3.org/2000/svg">
<path d="M97.1396 770.766C104.56 770.766 120.472 773.945 125.005 766.673C131.125 756.853 119.327 752.979 111.778 750.439C96.9328 745.444 72.1804 747.766 60.0896 738.671C164.847 679.005 243.212 587.496 283.523 473.858C323.616 360.829 331.379 222.348 267.197 115.899C235.784 63.7972 190.323 20.5348 130 4.21966C124.824 2.81958 99.5576 -5.28335 100.589 5.57328C101.127 11.233 133.669 21.3214 139.196 24.0252C167.933 38.0781 192.589 56.3139 213.94 79.9981C286.688 160.7 301.361 280.552 282.095 383.222C269.332 451.236 240.98 517.887 201.547 575.163C181.193 604.727 157.564 632.971 130.52 656.77C107.709 676.843 70.968 710.74 40.1301 716.836C44.2024 689.863 74.8662 665.931 82.926 639.608C87.1966 625.664 80.3464 609.692 64.4835 619.381C51.6229 627.236 43.4908 652.577 36.5919 665.415C28.8939 679.741 21.7057 694.235 15.3867 709.215C10.7515 720.203 -3.78546 741.848 0.928311 753.539C9.26333 774.211 78.1184 770.152 97.1396 770.766C89.2036 770.51 104.897 770.766 97.1396 770.766Z" fill="#222221"/>
</svg>
