<svg width="315" height="772" viewBox="0 0 315 772" fill="none" xmlns="http://www.w3.org/2000/svg">
<path d="M217.392 770.766C209.971 770.766 194.059 773.945 189.526 766.673C183.406 756.853 195.204 752.979 202.753 750.439C217.598 745.444 242.351 747.766 254.442 738.671C149.684 679.005 71.3192 587.496 31.0082 473.858C-9.08482 360.829 -16.8478 222.348 47.3342 115.899C78.7472 63.7973 124.208 20.5349 184.531 4.21973C189.707 2.81965 214.974 -5.28328 213.942 5.57335C213.404 11.2331 180.862 21.3215 175.335 24.0253C146.598 38.0782 121.942 56.314 100.591 79.9982C27.8432 160.7 13.1702 280.552 32.4362 383.222C45.1992 451.236 73.5512 517.887 112.984 575.163C133.338 604.727 156.967 632.971 184.011 656.77C206.822 676.843 243.563 710.74 274.401 716.836C270.329 689.863 239.665 665.931 231.605 639.608C227.335 625.664 234.185 609.692 250.048 619.381C262.908 627.236 271.04 652.577 277.939 665.415C285.637 679.741 292.825 694.235 299.144 709.215C303.78 720.203 318.317 741.848 313.603 753.539C305.268 774.211 236.413 770.152 217.392 770.766C209.634 770.766 225.328 770.51 217.392 770.766Z" fill="#222221"/>
</svg>
